<mxfile host="Electron" agent="Mozilla/5.0 (X11; Linux x86_64) AppleWebKit/537.36 (KHTML, like Gecko) draw.io/24.7.17 Chrome/128.0.6613.36 Electron/32.0.1 Safari/537.36" version="24.7.17">
  <diagram name="Page-1" id="805A5QYwbwHIFSjYZW_n">
    <mxGraphModel dx="1595" dy="1101" grid="0" gridSize="10" guides="0" tooltips="1" connect="0" arrows="0" fold="1" page="0" pageScale="1" pageWidth="850" pageHeight="1100" math="0" shadow="0">
      <root>
        <mxCell id="0" />
        <mxCell id="1" parent="0" />
        <mxCell id="1JOE3hFSWHMlkvmbz5BN-1" value="Usuário" style="shape=umlActor;verticalLabelPosition=bottom;verticalAlign=top;html=1;" vertex="1" parent="1">
          <mxGeometry x="-304" y="-25" width="30" height="60" as="geometry" />
        </mxCell>
        <mxCell id="1JOE3hFSWHMlkvmbz5BN-2" value="" style="endArrow=none;dashed=1;html=1;rounded=0;" edge="1" parent="1">
          <mxGeometry width="50" height="50" relative="1" as="geometry">
            <mxPoint x="-289" y="410" as="sourcePoint" />
            <mxPoint x="-289.28" y="65" as="targetPoint" />
          </mxGeometry>
        </mxCell>
        <mxCell id="1JOE3hFSWHMlkvmbz5BN-3" value="" style="html=1;points=[[0,0,0,0,5],[0,1,0,0,-5],[1,0,0,0,5],[1,1,0,0,-5]];perimeter=orthogonalPerimeter;outlineConnect=0;targetShapes=umlLifeline;portConstraint=eastwest;newEdgeStyle={&quot;curved&quot;:0,&quot;rounded&quot;:0};" vertex="1" parent="1">
          <mxGeometry x="-294" y="85" width="10" height="293" as="geometry" />
        </mxCell>
        <mxCell id="1JOE3hFSWHMlkvmbz5BN-4" value=":Usuario" style="shape=umlLifeline;perimeter=lifelinePerimeter;whiteSpace=wrap;html=1;container=1;dropTarget=0;collapsible=0;recursiveResize=0;outlineConnect=0;portConstraint=eastwest;newEdgeStyle={&quot;curved&quot;:0,&quot;rounded&quot;:0};" vertex="1" parent="1">
          <mxGeometry x="181" y="10" width="140" height="375" as="geometry" />
        </mxCell>
        <mxCell id="1JOE3hFSWHMlkvmbz5BN-5" value="" style="html=1;points=[[0,0,0,0,5],[0,1,0,0,-5],[1,0,0,0,5],[1,1,0,0,-5]];perimeter=orthogonalPerimeter;outlineConnect=0;targetShapes=umlLifeline;portConstraint=eastwest;newEdgeStyle={&quot;curved&quot;:0,&quot;rounded&quot;:0};" vertex="1" parent="1JOE3hFSWHMlkvmbz5BN-4">
          <mxGeometry x="64" y="221" width="10" height="52" as="geometry" />
        </mxCell>
        <mxCell id="1JOE3hFSWHMlkvmbz5BN-6" value=":HistoricoTransacoes" style="shape=umlLifeline;perimeter=lifelinePerimeter;whiteSpace=wrap;html=1;container=1;dropTarget=0;collapsible=0;recursiveResize=0;outlineConnect=0;portConstraint=eastwest;newEdgeStyle={&quot;curved&quot;:0,&quot;rounded&quot;:0};" vertex="1" parent="1">
          <mxGeometry x="339" y="10" width="130" height="374" as="geometry" />
        </mxCell>
        <mxCell id="1JOE3hFSWHMlkvmbz5BN-7" value="" style="html=1;points=[[0,0,0,0,5],[0,1,0,0,-5],[1,0,0,0,5],[1,1,0,0,-5]];perimeter=orthogonalPerimeter;outlineConnect=0;targetShapes=umlLifeline;portConstraint=eastwest;newEdgeStyle={&quot;curved&quot;:0,&quot;rounded&quot;:0};" vertex="1" parent="1JOE3hFSWHMlkvmbz5BN-6">
          <mxGeometry x="59" y="268" width="10" height="49" as="geometry" />
        </mxCell>
        <mxCell id="1JOE3hFSWHMlkvmbz5BN-8" value="ordem:OrdemVenda" style="shape=umlLifeline;perimeter=lifelinePerimeter;whiteSpace=wrap;html=1;container=1;dropTarget=0;collapsible=0;recursiveResize=0;outlineConnect=0;portConstraint=eastwest;newEdgeStyle={&quot;curved&quot;:0,&quot;rounded&quot;:0};" vertex="1" parent="1">
          <mxGeometry x="11" y="10" width="130" height="376" as="geometry" />
        </mxCell>
        <mxCell id="1JOE3hFSWHMlkvmbz5BN-9" value="" style="html=1;points=[[0,0,0,0,5],[0,1,0,0,-5],[1,0,0,0,5],[1,1,0,0,-5]];perimeter=orthogonalPerimeter;outlineConnect=0;targetShapes=umlLifeline;portConstraint=eastwest;newEdgeStyle={&quot;curved&quot;:0,&quot;rounded&quot;:0};" vertex="1" parent="1JOE3hFSWHMlkvmbz5BN-8">
          <mxGeometry x="58" y="245" width="10" height="22" as="geometry" />
        </mxCell>
        <mxCell id="1JOE3hFSWHMlkvmbz5BN-10" value="" style="html=1;points=[[0,0,0,0,5],[0,1,0,0,-5],[1,0,0,0,5],[1,1,0,0,-5]];perimeter=orthogonalPerimeter;outlineConnect=0;targetShapes=umlLifeline;portConstraint=eastwest;newEdgeStyle={&quot;curved&quot;:0,&quot;rounded&quot;:0};" vertex="1" parent="1JOE3hFSWHMlkvmbz5BN-8">
          <mxGeometry x="59" y="98" width="10" height="22" as="geometry" />
        </mxCell>
        <mxCell id="1JOE3hFSWHMlkvmbz5BN-11" value="" style="html=1;points=[[0,0,0,0,5],[0,1,0,0,-5],[1,0,0,0,5],[1,1,0,0,-5]];perimeter=orthogonalPerimeter;outlineConnect=0;targetShapes=umlLifeline;portConstraint=eastwest;newEdgeStyle={&quot;curved&quot;:0,&quot;rounded&quot;:0};" vertex="1" parent="1JOE3hFSWHMlkvmbz5BN-8">
          <mxGeometry x="59" y="160" width="10" height="18" as="geometry" />
        </mxCell>
        <mxCell id="1JOE3hFSWHMlkvmbz5BN-12" value="" style="endArrow=none;html=1;rounded=0;endFill=0;startArrow=classic;startFill=1;" edge="1" parent="1" source="1JOE3hFSWHMlkvmbz5BN-9">
          <mxGeometry width="50" height="50" relative="1" as="geometry">
            <mxPoint x="107" y="257" as="sourcePoint" />
            <mxPoint x="243.5" y="257" as="targetPoint" />
          </mxGeometry>
        </mxCell>
        <mxCell id="1JOE3hFSWHMlkvmbz5BN-13" value="getTipoOrdem()" style="edgeLabel;html=1;align=center;verticalAlign=middle;resizable=0;points=[];" vertex="1" connectable="0" parent="1JOE3hFSWHMlkvmbz5BN-12">
          <mxGeometry x="0.1526" relative="1" as="geometry">
            <mxPoint x="-16" y="-8" as="offset" />
          </mxGeometry>
        </mxCell>
        <mxCell id="1JOE3hFSWHMlkvmbz5BN-14" value="" style="endArrow=classic;html=1;rounded=0;" edge="1" parent="1">
          <mxGeometry width="50" height="50" relative="1" as="geometry">
            <mxPoint x="-66" y="231" as="sourcePoint" />
            <mxPoint x="245" y="231" as="targetPoint" />
          </mxGeometry>
        </mxCell>
        <mxCell id="1JOE3hFSWHMlkvmbz5BN-15" value="getHistoricoTransacoes(status)" style="edgeLabel;html=1;align=center;verticalAlign=middle;resizable=0;points=[];fontSize=9;" vertex="1" connectable="0" parent="1JOE3hFSWHMlkvmbz5BN-14">
          <mxGeometry x="-0.5083" y="1" relative="1" as="geometry">
            <mxPoint x="-7" y="-7" as="offset" />
          </mxGeometry>
        </mxCell>
        <mxCell id="1JOE3hFSWHMlkvmbz5BN-16" value="" style="endArrow=classic;html=1;rounded=0;startArrow=none;startFill=0;endFill=1;" edge="1" parent="1">
          <mxGeometry width="50" height="50" relative="1" as="geometry">
            <mxPoint x="255" y="283" as="sourcePoint" />
            <mxPoint x="397.5" y="283" as="targetPoint" />
          </mxGeometry>
        </mxCell>
        <mxCell id="1JOE3hFSWHMlkvmbz5BN-17" value="filtraPorTipo(venda)" style="edgeLabel;html=1;align=center;verticalAlign=middle;resizable=0;points=[];" vertex="1" connectable="0" parent="1JOE3hFSWHMlkvmbz5BN-16">
          <mxGeometry x="-0.1293" y="-2" relative="1" as="geometry">
            <mxPoint x="11" y="-10" as="offset" />
          </mxGeometry>
        </mxCell>
        <mxCell id="1JOE3hFSWHMlkvmbz5BN-18" value="" style="endArrow=none;html=1;rounded=0;startArrow=open;startFill=0;endFill=0;dashed=1;" edge="1" parent="1" source="1JOE3hFSWHMlkvmbz5BN-25">
          <mxGeometry width="50" height="50" relative="1" as="geometry">
            <mxPoint x="-279" y="327" as="sourcePoint" />
            <mxPoint x="401" y="327" as="targetPoint" />
          </mxGeometry>
        </mxCell>
        <mxCell id="1JOE3hFSWHMlkvmbz5BN-19" value="historico de ordens filtrado" style="edgeLabel;html=1;align=center;verticalAlign=middle;resizable=0;points=[];" vertex="1" connectable="0" parent="1JOE3hFSWHMlkvmbz5BN-18">
          <mxGeometry x="-0.3562" y="2" relative="1" as="geometry">
            <mxPoint x="246" y="11" as="offset" />
          </mxGeometry>
        </mxCell>
        <mxCell id="1JOE3hFSWHMlkvmbz5BN-20" value="" style="endArrow=open;html=1;rounded=0;startArrow=none;startFill=0;endFill=0;dashed=1;" edge="1" parent="1">
          <mxGeometry width="50" height="50" relative="1" as="geometry">
            <mxPoint x="79" y="277" as="sourcePoint" />
            <mxPoint x="244.99999999999977" y="277" as="targetPoint" />
          </mxGeometry>
        </mxCell>
        <mxCell id="1JOE3hFSWHMlkvmbz5BN-21" value="tipo: venda" style="edgeLabel;html=1;align=center;verticalAlign=middle;resizable=0;points=[];" vertex="1" connectable="0" parent="1JOE3hFSWHMlkvmbz5BN-20">
          <mxGeometry x="0.4545" y="1" relative="1" as="geometry">
            <mxPoint x="-34" y="-8" as="offset" />
          </mxGeometry>
        </mxCell>
        <mxCell id="1JOE3hFSWHMlkvmbz5BN-22" value="[se logado]" style="text;html=1;align=center;verticalAlign=middle;whiteSpace=wrap;rounded=0;" vertex="1" parent="1">
          <mxGeometry x="-226" y="73" width="80" height="30" as="geometry" />
        </mxCell>
        <mxCell id="1JOE3hFSWHMlkvmbz5BN-23" value="UC-18&lt;div&gt;Consultar histório de ordens de venda&lt;/div&gt;" style="strokeWidth=2;html=1;shape=mxgraph.flowchart.start_1;whiteSpace=wrap;" vertex="1" parent="1">
          <mxGeometry x="127" y="-114" width="134" height="83" as="geometry" />
        </mxCell>
        <mxCell id="1JOE3hFSWHMlkvmbz5BN-24" value="&lt;b&gt;:Interface&lt;/b&gt;" style="shape=umlLifeline;perimeter=lifelinePerimeter;whiteSpace=wrap;html=1;container=0;dropTarget=0;collapsible=0;recursiveResize=0;outlineConnect=0;portConstraint=eastwest;newEdgeStyle={&quot;edgeStyle&quot;:&quot;elbowEdgeStyle&quot;,&quot;elbow&quot;:&quot;vertical&quot;,&quot;curved&quot;:0,&quot;rounded&quot;:0};" vertex="1" parent="1">
          <mxGeometry x="-122" y="10" width="104" height="399" as="geometry" />
        </mxCell>
        <mxCell id="1JOE3hFSWHMlkvmbz5BN-25" value="" style="html=1;points=[];perimeter=orthogonalPerimeter;outlineConnect=0;targetShapes=umlLifeline;portConstraint=eastwest;newEdgeStyle={&quot;edgeStyle&quot;:&quot;elbowEdgeStyle&quot;,&quot;elbow&quot;:&quot;vertical&quot;,&quot;curved&quot;:0,&quot;rounded&quot;:0};" vertex="1" parent="1JOE3hFSWHMlkvmbz5BN-24">
          <mxGeometry x="47" y="77" width="10" height="264" as="geometry" />
        </mxCell>
        <mxCell id="1JOE3hFSWHMlkvmbz5BN-26" value="" style="endArrow=classic;html=1;rounded=0;" edge="1" parent="1" target="1JOE3hFSWHMlkvmbz5BN-25">
          <mxGeometry width="50" height="50" relative="1" as="geometry">
            <mxPoint x="-284" y="99" as="sourcePoint" />
            <mxPoint x="-112" y="98" as="targetPoint" />
          </mxGeometry>
        </mxCell>
        <mxCell id="1JOE3hFSWHMlkvmbz5BN-27" value="entra na tela de ordens e escolhe a&lt;div style=&quot;font-size: 10px;&quot;&gt;opção historico de ordens de venda e o&lt;/div&gt;&lt;div style=&quot;font-size: 10px;&quot;&gt;tipo (efetivadas, canceladas, modificadas)&lt;/div&gt;" style="edgeLabel;html=1;align=center;verticalAlign=middle;resizable=0;points=[];fontSize=10;" vertex="1" connectable="0" parent="1JOE3hFSWHMlkvmbz5BN-26">
          <mxGeometry x="-0.5083" y="1" relative="1" as="geometry">
            <mxPoint x="53" y="23" as="offset" />
          </mxGeometry>
        </mxCell>
        <mxCell id="1JOE3hFSWHMlkvmbz5BN-28" value=":APIB3" style="shape=umlLifeline;perimeter=lifelinePerimeter;whiteSpace=wrap;html=1;container=1;dropTarget=0;collapsible=0;recursiveResize=0;outlineConnect=0;portConstraint=eastwest;newEdgeStyle={&quot;curved&quot;:0,&quot;rounded&quot;:0};" vertex="1" parent="1">
          <mxGeometry x="494" y="9" width="130" height="373" as="geometry" />
        </mxCell>
        <mxCell id="1JOE3hFSWHMlkvmbz5BN-29" value="" style="html=1;points=[[0,0,0,0,5],[0,1,0,0,-5],[1,0,0,0,5],[1,1,0,0,-5]];perimeter=orthogonalPerimeter;outlineConnect=0;targetShapes=umlLifeline;portConstraint=eastwest;newEdgeStyle={&quot;curved&quot;:0,&quot;rounded&quot;:0};" vertex="1" parent="1JOE3hFSWHMlkvmbz5BN-28">
          <mxGeometry x="60" y="119" width="10" height="46" as="geometry" />
        </mxCell>
        <mxCell id="1JOE3hFSWHMlkvmbz5BN-30" value="API B3" style="shape=umlActor;verticalLabelPosition=bottom;verticalAlign=top;html=1;" vertex="1" parent="1">
          <mxGeometry x="674" y="-20" width="30" height="60" as="geometry" />
        </mxCell>
        <mxCell id="1JOE3hFSWHMlkvmbz5BN-31" value="" style="endArrow=none;dashed=1;html=1;rounded=0;" edge="1" parent="1" source="1JOE3hFSWHMlkvmbz5BN-33">
          <mxGeometry width="50" height="50" relative="1" as="geometry">
            <mxPoint x="688.99" y="350" as="sourcePoint" />
            <mxPoint x="688.71" y="70" as="targetPoint" />
          </mxGeometry>
        </mxCell>
        <mxCell id="1JOE3hFSWHMlkvmbz5BN-32" value="" style="endArrow=none;dashed=1;html=1;rounded=0;" edge="1" parent="1" target="1JOE3hFSWHMlkvmbz5BN-33">
          <mxGeometry width="50" height="50" relative="1" as="geometry">
            <mxPoint x="689" y="385" as="sourcePoint" />
            <mxPoint x="688.71" y="70" as="targetPoint" />
          </mxGeometry>
        </mxCell>
        <mxCell id="1JOE3hFSWHMlkvmbz5BN-33" value="" style="html=1;points=[[0,0,0,0,5],[0,1,0,0,-5],[1,0,0,0,5],[1,1,0,0,-5]];perimeter=orthogonalPerimeter;outlineConnect=0;targetShapes=umlLifeline;portConstraint=eastwest;newEdgeStyle={&quot;curved&quot;:0,&quot;rounded&quot;:0};" vertex="1" parent="1">
          <mxGeometry x="684" y="142" width="10" height="20" as="geometry" />
        </mxCell>
        <mxCell id="1JOE3hFSWHMlkvmbz5BN-34" value="" style="endArrow=classic;html=1;rounded=0;" edge="1" parent="1">
          <mxGeometry width="50" height="50" relative="1" as="geometry">
            <mxPoint x="563.9999999999998" y="142.4999999999999" as="sourcePoint" />
            <mxPoint x="683.9999999999998" y="142.4999999999999" as="targetPoint" />
          </mxGeometry>
        </mxCell>
        <mxCell id="1JOE3hFSWHMlkvmbz5BN-35" value="consulta status&lt;div&gt;da ordem de&lt;/div&gt;&lt;div&gt;venda&lt;/div&gt;" style="edgeLabel;html=1;align=center;verticalAlign=middle;resizable=0;points=[];" vertex="1" connectable="0" parent="1JOE3hFSWHMlkvmbz5BN-34">
          <mxGeometry x="0.1201" relative="1" as="geometry">
            <mxPoint x="-9" y="-22" as="offset" />
          </mxGeometry>
        </mxCell>
        <mxCell id="1JOE3hFSWHMlkvmbz5BN-36" value="" style="endArrow=none;html=1;rounded=0;startArrow=open;startFill=0;endFill=0;dashed=1;" edge="1" parent="1">
          <mxGeometry width="50" height="50" relative="1" as="geometry">
            <mxPoint x="563.9999999999998" y="160.9999999999999" as="sourcePoint" />
            <mxPoint x="683.9999999999998" y="160.9999999999999" as="targetPoint" />
          </mxGeometry>
        </mxCell>
        <mxCell id="1JOE3hFSWHMlkvmbz5BN-37" value="status atual da&amp;nbsp;&lt;div&gt;ordem de venda&lt;/div&gt;" style="edgeLabel;html=1;align=center;verticalAlign=middle;resizable=0;points=[];" vertex="1" connectable="0" parent="1JOE3hFSWHMlkvmbz5BN-36">
          <mxGeometry x="0.1201" relative="1" as="geometry">
            <mxPoint x="-5" y="16" as="offset" />
          </mxGeometry>
        </mxCell>
        <mxCell id="1JOE3hFSWHMlkvmbz5BN-38" value="" style="endArrow=classic;html=1;rounded=0;" edge="1" parent="1" target="1JOE3hFSWHMlkvmbz5BN-10">
          <mxGeometry width="50" height="50" relative="1" as="geometry">
            <mxPoint x="-64" y="110" as="sourcePoint" />
            <mxPoint x="60" y="110" as="targetPoint" />
          </mxGeometry>
        </mxCell>
        <mxCell id="1JOE3hFSWHMlkvmbz5BN-39" value="getStatus(ordem)" style="edgeLabel;html=1;align=center;verticalAlign=middle;resizable=0;points=[];" vertex="1" connectable="0" parent="1JOE3hFSWHMlkvmbz5BN-38">
          <mxGeometry x="0.1526" relative="1" as="geometry">
            <mxPoint x="-12" y="-9" as="offset" />
          </mxGeometry>
        </mxCell>
        <mxCell id="1JOE3hFSWHMlkvmbz5BN-40" value="" style="endArrow=classic;html=1;rounded=0;" edge="1" parent="1" target="1JOE3hFSWHMlkvmbz5BN-29">
          <mxGeometry width="50" height="50" relative="1" as="geometry">
            <mxPoint x="80" y="130" as="sourcePoint" />
            <mxPoint x="253" y="130" as="targetPoint" />
          </mxGeometry>
        </mxCell>
        <mxCell id="1JOE3hFSWHMlkvmbz5BN-41" value="consultarStatusOrdem(ordem)" style="edgeLabel;html=1;align=center;verticalAlign=middle;resizable=0;points=[];" vertex="1" connectable="0" parent="1JOE3hFSWHMlkvmbz5BN-40">
          <mxGeometry x="-0.5083" y="1" relative="1" as="geometry">
            <mxPoint x="-37" y="-7" as="offset" />
          </mxGeometry>
        </mxCell>
        <mxCell id="1JOE3hFSWHMlkvmbz5BN-42" value="" style="endArrow=none;html=1;rounded=0;startArrow=open;startFill=0;endFill=0;dashed=1;" edge="1" parent="1">
          <mxGeometry width="50" height="50" relative="1" as="geometry">
            <mxPoint x="81" y="175" as="sourcePoint" />
            <mxPoint x="556.5" y="174" as="targetPoint" />
          </mxGeometry>
        </mxCell>
        <mxCell id="1JOE3hFSWHMlkvmbz5BN-43" value="status" style="edgeLabel;html=1;align=center;verticalAlign=middle;resizable=0;points=[];" vertex="1" connectable="0" parent="1JOE3hFSWHMlkvmbz5BN-42">
          <mxGeometry x="-0.3562" y="2" relative="1" as="geometry">
            <mxPoint x="300" y="-6" as="offset" />
          </mxGeometry>
        </mxCell>
        <mxCell id="1JOE3hFSWHMlkvmbz5BN-44" value="" style="endArrow=none;html=1;rounded=0;startArrow=open;startFill=0;endFill=0;dashed=1;" edge="1" parent="1">
          <mxGeometry width="50" height="50" relative="1" as="geometry">
            <mxPoint x="-63.666666666666686" y="188" as="sourcePoint" />
            <mxPoint x="72.5" y="188" as="targetPoint" />
          </mxGeometry>
        </mxCell>
        <mxCell id="1JOE3hFSWHMlkvmbz5BN-45" value="status" style="edgeLabel;html=1;align=center;verticalAlign=middle;resizable=0;points=[];" vertex="1" connectable="0" parent="1JOE3hFSWHMlkvmbz5BN-44">
          <mxGeometry x="-0.3562" y="2" relative="1" as="geometry">
            <mxPoint x="70" y="-6" as="offset" />
          </mxGeometry>
        </mxCell>
        <mxCell id="1JOE3hFSWHMlkvmbz5BN-46" value="" style="endArrow=open;html=1;rounded=0;fontSize=12;startSize=8;endSize=8;curved=1;endFill=0;dashed=1;" edge="1" parent="1" target="1JOE3hFSWHMlkvmbz5BN-3">
          <mxGeometry width="50" height="50" relative="1" as="geometry">
            <mxPoint x="-75" y="341" as="sourcePoint" />
            <mxPoint x="-25" y="291" as="targetPoint" />
          </mxGeometry>
        </mxCell>
        <mxCell id="1JOE3hFSWHMlkvmbz5BN-47" value="exibe histórico de ordens&lt;div&gt;filtrado ao usuário&lt;/div&gt;" style="edgeLabel;html=1;align=center;verticalAlign=middle;resizable=0;points=[];fontSize=12;" vertex="1" connectable="0" parent="1JOE3hFSWHMlkvmbz5BN-46">
          <mxGeometry x="0.085" y="-1" relative="1" as="geometry">
            <mxPoint x="7" y="18" as="offset" />
          </mxGeometry>
        </mxCell>
      </root>
    </mxGraphModel>
  </diagram>
</mxfile>
